<svg xmlns="http://www.w3.org/2000/svg" xmlns:xlink="http://www.w3.org/1999/xlink" viewBox="0,0,256,256" width="48px" height="48px" fill-rule="nonzero"><g transform=""><g fill="#333333" fill-rule="nonzero" stroke="none" stroke-width="none" stroke-linecap="butt" stroke-linejoin="none" stroke-miterlimit="10" stroke-dasharray="" stroke-dashoffset="0" font-family="none" font-weight="none" font-size="none" text-anchor="none" style="mix-blend-mode: normal"><path transform="scale(10.66667,10.66667)" d="M5.70703,4.29297l6.29297,6.29297l6.29297,-6.29297c0.18112,-0.18641 0.4277,-0.29499 0.6875,-0.30273c0.41228,-0.01216 0.78974,0.23004 0.9505,0.60988c0.16075,0.37985 0.07183,0.81942 -0.22393,1.10691l-6.29297,6.29297l6.29297,6.29297c0.26124,0.25082 0.36648,0.62327 0.27512,0.97371c-0.09136,0.35044 -0.36503,0.62411 -0.71547,0.71547c-0.35044,0.09136 -0.72289,-0.01388 -0.97371,-0.27512l-6.29297,-6.29297l-6.29297,6.29297c-0.25082,0.26124 -0.62327,0.36647 -0.97371,0.27511c-0.35044,-0.09136 -0.62411,-0.36503 -0.71547,-0.71547c-0.09136,-0.35044 0.01388,-0.72289 0.27511,-0.97371l6.29297,-6.29297l-6.29297,-6.29297c-0.29161,-0.28381 -0.38219,-0.71601 -0.22907,-1.09303c0.15312,-0.37701 0.51941,-0.62366 0.92633,-0.62377c0.27,0.00002 0.52853,0.1092 0.7168,0.30273z" id="strokeMainSVG" stroke="#333333" stroke-width="3" stroke-linejoin="round"></path><g transform="scale(10.66667,10.66667)" stroke="none" stroke-width="1" stroke-linejoin="miter"><path d="M4.99023,3.99023c-0.40692,0.00011 -0.77321,0.24676 -0.92633,0.62377c-0.15312,0.37701 -0.06255,0.80921 0.22907,1.09303l6.29297,6.29297l-6.29297,6.29297c-0.26124,0.25082 -0.36647,0.62327 -0.27511,0.97371c0.09136,0.35044 0.36503,0.62411 0.71547,0.71547c0.35044,0.09136 0.72289,-0.01388 0.97371,-0.27511l6.29297,-6.29297l6.29297,6.29297c0.25082,0.26124 0.62327,0.36648 0.97371,0.27512c0.35044,-0.09136 0.62411,-0.36503 0.71547,-0.71547c0.09136,-0.35044 -0.01388,-0.72289 -0.27512,-0.97371l-6.29297,-6.29297l6.29297,-6.29297c0.29576,-0.28749 0.38469,-0.72707 0.22393,-1.10691c-0.16075,-0.37985 -0.53821,-0.62204 -0.9505,-0.60988c-0.2598,0.00774 -0.50638,0.11632 -0.6875,0.30273l-6.29297,6.29297l-6.29297,-6.29297c-0.18827,-0.19353 -0.4468,-0.30272 -0.7168,-0.30273z"></path></g></g></g></svg>